<?xml version="1.0" standalone="no"?>
<!DOCTYPE svg PUBLIC "-//W3C//DTD SVG 20010904//EN"
 "http://www.w3.org/TR/2001/REC-SVG-20010904/DTD/svg10.dtd">
<svg version="1.0" xmlns="http://www.w3.org/2000/svg"
 width="512.000000pt" height="512.000000pt" viewBox="0 0 512.000000 512.000000"
 preserveAspectRatio="xMidYMid meet">
<metadata>
Created by potrace 1.11, written by Peter Selinger 2001-2013
</metadata>
<g transform="translate(0.000000,512.000000) scale(0.100000,-0.100000)"
fill="#000000" stroke="none">
<path d="M3059 3880 c-144 -38 -296 -129 -457 -272 l-42 -39 -75 64 c-144 123
-312 219 -434 247 -81 19 -189 8 -240 -25 -69 -43 -128 -142 -148 -246 -17
-90 -9 -356 14 -464 15 -75 15 -75 -82 -111 -258 -98 -433 -221 -496 -349 -36
-74 -34 -171 5 -242 74 -135 279 -274 520 -353 l68 -22 -6 -37 c-3 -20 -8 -54
-11 -76 -3 -22 -8 -46 -10 -53 -3 -7 -8 -66 -11 -130 -28 -526 251 -678 694
-380 40 27 104 76 143 109 l70 61 35 -29 c196 -159 344 -247 464 -277 82 -20
181 -14 236 15 117 60 176 205 176 434 0 86 -12 213 -27 281 -18 87 -25 76 66
108 243 86 430 213 504 343 23 40 28 61 29 123 1 89 -20 142 -91 220 -83 93
-300 217 -465 266 l-60 18 7 42 c3 22 8 52 10 66 50 274 19 519 -80 636 -64
76 -183 104 -306 72z m-988 -145 c93 -33 234 -124 354 -228 l39 -34 -29 -30
c-46 -46 -77 -83 -155 -181 l-71 -90 -87 -12 c-48 -7 -129 -21 -181 -31 -51
-10 -99 -19 -106 -19 -8 0 -16 18 -20 43 -4 23 -9 51 -11 62 -37 196 -19 408
43 492 38 53 123 63 224 28z m1149 13 c49 -18 88 -86 105 -188 9 -46 9 -213 1
-270 -19 -133 -29 -180 -39 -180 -7 0 -43 6 -82 14 -38 8 -90 18 -115 21 -25
3 -52 8 -60 10 -8 2 -37 6 -65 9 -41 5 -55 11 -77 38 -15 18 -55 67 -88 108
-34 41 -80 94 -102 118 -40 42 -40 43 -22 64 19 21 163 133 199 155 11 7 40
24 65 39 98 60 213 85 280 62z m-574 -465 c41 -47 72 -88 69 -91 -2 -3 -73 -4
-157 -4 -116 1 -152 4 -150 14 5 19 146 175 155 171 4 -3 41 -43 83 -90z m165
-240 c30 -6 133 -160 230 -347 l67 -130 -65 -125 c-36 -69 -73 -137 -83 -151
-9 -14 -19 -29 -21 -35 -2 -5 -26 -45 -54 -87 l-49 -76 -51 -4 c-27 -3 -149
-4 -269 -3 l-219 1 -24 30 c-39 48 -143 221 -204 339 l-57 111 62 121 c53 99
106 190 199 335 6 9 25 19 42 21 46 5 468 6 496 0z m-711 -29 c0 -3 -20 -38
-44 -77 -23 -40 -58 -100 -76 -135 -18 -35 -36 -60 -41 -55 -15 16 -79 217
-72 224 8 7 91 25 163 35 18 3 36 7 39 9 6 7 31 6 31 -1z m1038 -15 c59 -12
110 -25 114 -28 7 -6 -57 -209 -71 -223 -3 -4 -31 36 -60 90 -30 53 -67 116
-83 140 -16 23 -24 42 -18 42 5 0 58 -10 118 -21z m437 -132 c192 -81 330
-199 338 -289 9 -89 -115 -207 -318 -303 -59 -28 -196 -77 -201 -72 -1 1 -12
31 -24 67 -29 88 -69 196 -91 247 -11 23 -19 46 -19 52 0 5 15 45 34 89 18 44
48 125 65 180 l33 100 66 -25 c37 -13 90 -34 117 -46z m-1820 -19 c15 -46 45
-127 68 -182 l40 -99 -23 -56 c-12 -31 -28 -69 -35 -86 -7 -16 -27 -74 -45
-127 -37 -114 -23 -110 -176 -47 -146 60 -217 103 -297 179 -80 74 -97 120
-68 185 25 56 54 89 126 140 92 66 313 171 366 174 12 1 24 -22 44 -81z m324
-688 c33 -48 33 -48 -7 -40 -20 5 -56 11 -78 14 -40 5 -134 26 -134 30 0 3 55
162 70 204 l12 33 60 -108 c33 -59 68 -119 77 -133z m1146 115 c19 -53 35
-101 35 -105 0 -7 -29 -15 -125 -36 -5 -1 -27 -4 -47 -8 -21 -3 -43 -7 -50 -8
-7 -2 -12 3 -10 11 3 12 85 160 112 201 6 8 15 28 22 44 13 35 15 32 63 -99z
m-1290 -269 c39 -8 117 -22 175 -31 76 -11 109 -19 118 -32 40 -55 64 -85 129
-163 39 -48 79 -92 87 -99 9 -8 16 -17 16 -22 0 -14 -180 -153 -256 -198 -134
-79 -260 -106 -318 -68 -43 29 -72 84 -92 182 -6 26 -6 233 0 265 2 14 10 59
16 100 7 41 14 78 16 82 5 7 5 7 109 -16z m1370 -18 c4 -24 9 -54 12 -68 19
-107 23 -266 8 -360 -10 -66 -50 -142 -83 -162 -91 -54 -291 20 -484 179 -39
32 -77 63 -86 70 -12 10 -6 21 42 74 31 34 86 102 123 150 69 88 79 95 153
103 58 7 135 18 140 21 3 2 23 6 45 9 22 4 54 10 70 15 49 15 53 13 60 -31z
m-585 -46 c0 -6 -80 -101 -127 -152 l-33 -35 -31 35 c-39 42 -129 150 -129
154 0 1 72 3 160 3 88 -1 160 -3 160 -5z"/>
<path d="M2538 2845 c-2 -2 -17 -5 -34 -8 -78 -12 -162 -78 -197 -155 -16 -35
-21 -66 -20 -117 1 -86 27 -149 85 -201 203 -183 515 1 456 269 -18 84 -96
169 -179 196 -36 12 -105 21 -111 16z"/>
</g>
</svg>
